<?xml version="1.0" encoding="utf-8"?>
<!-- Generator: Adobe Illustrator 26.0.0, SVG Export Plug-In . SVG Version: 6.00 Build 0)  -->
<svg version="1.1" id="Layer_1" xmlns="http://www.w3.org/2000/svg" xmlns:xlink="http://www.w3.org/1999/xlink" x="0px" y="0px"
	 viewBox="282 232 277 131" style="enable-background:new 0 0 841.89 595.28;" xml:space="preserve">
<style type="text/css">
	.st0{fill:#c9a24d;}
	.st1{fill:#f3efe4;}
	.st2{fill:url(#SVGID_1_);}
	.st3{fill:url(#SVGID_00000149343913602874283120000004243495676415671700_);}
</style>
<g>
	<g>
		<g>
			<g>
				<path class="st0" d="M465.37,276.42c-9.05-3.28-13.31-15.1-14.21-24.22c-0.01-0.05-0.03-0.09-0.04-0.14
					c-0.01-0.05-0.02-0.09-0.04-0.14c-0.03-0.06-0.07-0.11-0.11-0.16c-0.03-0.03-0.05-0.07-0.08-0.1c-0.05-0.05-0.11-0.08-0.17-0.12
					c-0.03-0.02-0.06-0.05-0.1-0.06c-0.1-0.04-0.21-0.07-0.33-0.07c-0.12,0-0.23,0.02-0.33,0.07c-0.04,0.01-0.06,0.04-0.1,0.06
					c-0.06,0.04-0.12,0.07-0.17,0.12c-0.03,0.03-0.05,0.07-0.08,0.1c-0.04,0.05-0.08,0.1-0.11,0.16c-0.02,0.04-0.03,0.09-0.04,0.14
					c-0.01,0.05-0.04,0.09-0.04,0.14c-0.9,9.12-5.16,20.93-14.21,24.22c-0.34,0.12-0.57,0.44-0.57,0.8c0,0.36,0.21,0.69,0.55,0.82
					c6.54,2.61,10.23,6.39,11.27,11.54v9.32c0,0.48,0.39,0.87,0.87,0.87h5.93c0.48,0,0.87-0.39,0.87-0.87v-9.32
					c1.03-5.15,4.72-8.93,11.27-11.54c0.33-0.13,0.55-0.46,0.55-0.82C465.94,276.86,465.71,276.54,465.37,276.42z M450.3,273.98
					c0.6,0,1.09,0.49,1.09,1.09c0,0.6-0.49,1.08-1.09,1.08c-0.6,0-1.09-0.49-1.09-1.08C449.21,274.47,449.7,273.98,450.3,273.98z
					 M452.57,288.61h-4.53c-1.19-4.87-4.66-8.69-10.34-11.38c5.93-3.05,9.7-9.54,11.74-16.24v11.41c-1.13,0.37-1.95,1.42-1.95,2.67
					c0,1.55,1.26,2.82,2.82,2.82c1.55,0,2.82-1.26,2.82-2.82c0-1.25-0.82-2.3-1.95-2.67v-11.41c2.04,6.7,5.81,13.19,11.74,16.24
					C457.23,279.91,453.76,283.73,452.57,288.61z"/>
				<path class="st1" d="M477.04,245.63c1.55,0,2.82-1.27,2.82-2.82c0-1.55-1.26-2.82-2.82-2.82c-1.25,0-2.3,0.82-2.67,1.95h-21.25
					v-1.09c0-0.48-0.39-0.87-0.87-0.87h-3.91c-0.48,0-0.87,0.39-0.87,0.87v1.09h-21.25c-0.37-1.13-1.42-1.95-2.67-1.95
					c-1.55,0-2.82,1.26-2.82,2.82c0,1.55,1.27,2.82,2.82,2.82c1.25,0,2.3-0.82,2.67-1.95h14.82c-9.33,3.62-16.03,12.55-16.38,23.06
					h-1.11c-0.48,0-0.87,0.39-0.87,0.87v3.91c0,0.48,0.39,0.87,0.87,0.87h3.91c0.48,0,0.87-0.39,0.87-0.87v-3.91
					c0-0.48-0.39-0.87-0.87-0.87h-1.06c0.42-11.84,9.5-21.52,21.08-22.88v0.92c0,0.48,0.39,0.87,0.87,0.87h3.91
					c0.48,0,0.87-0.39,0.87-0.87v-0.92c11.58,1.37,20.65,11.04,21.08,22.88h-1.06c-0.48,0-0.87,0.39-0.87,0.87v3.91
					c0,0.48,0.39,0.87,0.87,0.87h3.91c0.48,0,0.87-0.39,0.87-0.87v-3.91c0-0.48-0.39-0.87-0.87-0.87h-1.11
					c-0.35-10.51-7.05-19.43-16.38-23.06h14.82C474.74,244.8,475.79,245.63,477.04,245.63z M426.6,270.64h-2.17v-2.17h1.09h0h1.08
					V270.64z M476.18,270.64H474v-2.17h1.08h0h1.09V270.64z M451.39,243.7v0.19h-2.17v-0.19v-0.03v-1.71v-0.03v-0.22h2.17v0.22v0.03
					v1.71V243.7z"/>
			</g>
		</g>
	</g>
	<linearGradient id="SVGID_1_" gradientUnits="userSpaceOnUse" x1="290.4696" y1="354.2645" x2="551.5304" y2="354.2645">
		<stop  offset="0" style="stop-color:#FFFFFF"/>
		<stop  offset="0.5614" style="stop-color:#A75D2B"/>
		<stop  offset="1" style="stop-color:#FFFFFF"/>
	</linearGradient>
	<rect x="290.47" y="353.52" class="st2" width="261.06" height="1.5"/>
	
		<linearGradient id="SVGID_00000044150526910045702760000011225579457450210223_" gradientUnits="userSpaceOnUse" x1="290.4696" y1="338.1913" x2="551.5304" y2="338.1913">
		<stop  offset="0" style="stop-color:#FFFFFF"/>
		<stop  offset="0.5614" style="stop-color:#A75D2B"/>
		<stop  offset="1" style="stop-color:#FFFFFF"/>
	</linearGradient>
	
		<rect x="290.47" y="337.44" style="fill:url(#SVGID_00000044150526910045702760000011225579457450210223_);" width="261.06" height="1.5"/>
	<g>
		<g>
			<g>
				<path class="st1" d="M314.23,345.63l2.38-3.65c0.06-0.07,0.13-0.13,0.22-0.17c0.08-0.04,0.17-0.06,0.25-0.07
					c0.09-0.01,0.17,0,0.26,0.03c0.09,0.03,0.17,0.07,0.24,0.14c0.15,0.12,0.23,0.27,0.26,0.46c0.03,0.18-0.03,0.37-0.17,0.55
					l-2.73,4.09v3.07c0,0.2-0.07,0.36-0.21,0.5c-0.14,0.13-0.3,0.2-0.5,0.2c-0.2,0-0.36-0.07-0.5-0.2c-0.13-0.13-0.2-0.3-0.2-0.5
					v-3.06l-2.76-4.09c-0.12-0.15-0.18-0.32-0.17-0.51c0.01-0.19,0.09-0.36,0.24-0.49c0.07-0.06,0.15-0.11,0.24-0.14
					c0.09-0.03,0.18-0.04,0.27-0.04c0.09,0.01,0.18,0.03,0.26,0.07c0.08,0.04,0.15,0.1,0.22,0.18L314.23,345.63z"/>
				<path class="st1" d="M324.9,341.84c0.39,0.11,0.76,0.26,1.1,0.46c0.34,0.2,0.65,0.44,0.93,0.72c0.28,0.28,0.52,0.59,0.72,0.93
					c0.2,0.34,0.35,0.71,0.46,1.1c0.11,0.39,0.17,0.8,0.17,1.22c0,0.64-0.12,1.23-0.36,1.79c-0.24,0.56-0.57,1.04-0.99,1.46
					c-0.42,0.42-0.9,0.74-1.46,0.98c-0.56,0.24-1.16,0.36-1.79,0.36c-0.64,0-1.23-0.12-1.79-0.36s-1.04-0.57-1.46-0.98
					c-0.41-0.42-0.74-0.9-0.97-1.46c-0.24-0.56-0.36-1.15-0.36-1.79c0-0.42,0.05-0.83,0.16-1.22c0.11-0.39,0.26-0.76,0.46-1.1
					c0.2-0.34,0.44-0.65,0.71-0.93c0.28-0.28,0.59-0.52,0.93-0.72c0.34-0.2,0.7-0.35,1.09-0.46c0.39-0.11,0.8-0.17,1.22-0.17
					C324.1,341.67,324.51,341.73,324.9,341.84z M322.44,343.34c-0.39,0.17-0.72,0.39-1.01,0.68c-0.29,0.29-0.51,0.63-0.68,1.01
					c-0.16,0.39-0.25,0.8-0.25,1.24c0,0.45,0.08,0.87,0.25,1.25c0.17,0.39,0.39,0.72,0.68,1.01c0.28,0.29,0.62,0.51,1.01,0.68
					c0.39,0.17,0.8,0.25,1.24,0.25c0.44,0,0.86-0.08,1.25-0.25c0.39-0.17,0.73-0.39,1.01-0.68c0.29-0.29,0.51-0.62,0.68-1.01
					c0.16-0.39,0.25-0.8,0.25-1.25c0-0.44-0.08-0.85-0.25-1.24c-0.17-0.39-0.39-0.72-0.68-1.01c-0.29-0.29-0.63-0.51-1.01-0.68
					c-0.39-0.17-0.8-0.25-1.25-0.25C323.24,343.09,322.82,343.17,322.44,343.34z"/>
				<path class="st1" d="M335.31,342.15c0.04-0.08,0.08-0.16,0.15-0.22c0.06-0.06,0.14-0.11,0.22-0.14
					c0.08-0.04,0.18-0.05,0.28-0.05c0.2,0,0.37,0.07,0.5,0.2c0.14,0.13,0.21,0.3,0.21,0.49v5.13c0,0.46-0.08,0.88-0.24,1.28
					c-0.16,0.4-0.39,0.75-0.68,1.05c-0.29,0.3-0.64,0.54-1.04,0.71c-0.4,0.17-0.85,0.26-1.34,0.26c-0.48,0-0.93-0.08-1.35-0.26
					c-0.41-0.17-0.77-0.41-1.07-0.71c-0.3-0.3-0.54-0.65-0.71-1.05c-0.17-0.4-0.26-0.83-0.26-1.28v-5.11c0-0.1,0.02-0.19,0.05-0.28
					c0.04-0.08,0.08-0.16,0.15-0.22c0.06-0.06,0.14-0.11,0.22-0.15c0.08-0.04,0.18-0.06,0.28-0.06c0.1,0,0.19,0.02,0.28,0.06
					c0.08,0.04,0.16,0.09,0.22,0.15c0.06,0.06,0.11,0.14,0.15,0.22c0.04,0.08,0.06,0.18,0.06,0.28v5.07c0,0.26,0.05,0.51,0.15,0.75
					c0.1,0.24,0.24,0.45,0.41,0.62c0.17,0.18,0.38,0.32,0.62,0.42c0.24,0.11,0.51,0.16,0.8,0.16s0.55-0.05,0.78-0.16
					c0.23-0.1,0.43-0.24,0.6-0.42c0.16-0.18,0.29-0.39,0.38-0.62c0.09-0.24,0.13-0.48,0.13-0.75v-5.09
					C335.25,342.33,335.27,342.24,335.31,342.15z"/>
				<path class="st1" d="M344.8,344.41c0,0.29-0.04,0.57-0.13,0.83c-0.09,0.26-0.21,0.5-0.37,0.72c-0.16,0.22-0.35,0.41-0.57,0.57
					c-0.22,0.16-0.46,0.29-0.72,0.38l1.67,2.82c0.05,0.08,0.08,0.17,0.09,0.27c0.01,0.09,0,0.18-0.03,0.27
					c-0.03,0.09-0.07,0.17-0.13,0.24c-0.06,0.07-0.13,0.13-0.22,0.17c-0.08,0.05-0.17,0.08-0.26,0.08c-0.09,0.01-0.18,0-0.26-0.02
					c-0.08-0.03-0.16-0.07-0.24-0.12c-0.07-0.05-0.13-0.12-0.18-0.21l-1.97-3.36h-1.08v3.02c0,0.2-0.07,0.36-0.2,0.5
					c-0.14,0.13-0.3,0.2-0.5,0.2c-0.2,0-0.36-0.07-0.5-0.2c-0.13-0.13-0.2-0.3-0.2-0.5v-7.66c0-0.2,0.07-0.36,0.2-0.49
					c0.13-0.13,0.3-0.2,0.5-0.2h2.37c0.38,0,0.73,0.07,1.06,0.21c0.33,0.14,0.62,0.33,0.87,0.57c0.25,0.24,0.44,0.52,0.58,0.85
					C344.73,343.69,344.8,344.04,344.8,344.41z M340.42,343.13v2.54h1.67c0.18,0,0.35-0.04,0.51-0.11c0.16-0.07,0.3-0.17,0.42-0.28
					c0.12-0.12,0.21-0.25,0.28-0.41c0.07-0.16,0.1-0.32,0.1-0.49c0-0.17-0.03-0.34-0.11-0.49c-0.07-0.15-0.17-0.29-0.29-0.4
					c-0.12-0.11-0.26-0.2-0.42-0.27c-0.16-0.06-0.33-0.09-0.51-0.09H340.42z"/>
				<path class="st1" d="M352.4,350.08c0,0.2-0.07,0.36-0.2,0.5c-0.14,0.13-0.3,0.2-0.5,0.2c-0.2,0-0.36-0.07-0.5-0.2
					c-0.13-0.13-0.2-0.3-0.2-0.5v-7.66c0-0.2,0.07-0.36,0.2-0.49c0.13-0.13,0.3-0.2,0.5-0.2c0.2,0,0.36,0.07,0.5,0.2
					c0.14,0.13,0.2,0.3,0.2,0.49V350.08z"/>
				<path class="st1" d="M356.4,344.55v5.54c0,0.2-0.07,0.36-0.2,0.5c-0.14,0.13-0.3,0.2-0.5,0.2c-0.2,0-0.36-0.07-0.5-0.2
					c-0.13-0.13-0.2-0.3-0.2-0.5v-7.64c0-0.2,0.07-0.36,0.2-0.5c0.13-0.13,0.3-0.2,0.5-0.2h0.01c0.03,0,0.05,0,0.06,0.01
					c0.02,0,0.04,0,0.05,0.01l0.1,0.02c0.08,0.03,0.15,0.06,0.2,0.11l0.08,0.06c0.05,0.05,0.09,0.11,0.13,0.17l4.2,5.86v-5.57
					c0-0.2,0.07-0.36,0.21-0.49c0.14-0.13,0.31-0.2,0.51-0.2c0.1,0,0.19,0.02,0.28,0.05c0.09,0.04,0.16,0.08,0.22,0.15
					c0.06,0.06,0.11,0.14,0.14,0.22c0.03,0.08,0.05,0.17,0.05,0.27v7.66c0,0.16-0.05,0.3-0.14,0.42c-0.09,0.12-0.21,0.2-0.35,0.24
					c-0.04,0.01-0.08,0.02-0.13,0.03h-0.08c-0.17,0-0.31-0.05-0.44-0.15l-0.07-0.06c-0.02-0.02-0.04-0.04-0.06-0.06L356.4,344.55z"
					/>
				<path class="st1" d="M364.51,347.39c-0.1,0-0.19-0.02-0.28-0.06c-0.09-0.04-0.16-0.09-0.23-0.15c-0.06-0.06-0.11-0.14-0.15-0.22
					c-0.04-0.08-0.06-0.18-0.06-0.28c0-0.1,0.02-0.19,0.06-0.28c0.04-0.09,0.09-0.16,0.15-0.23c0.06-0.06,0.14-0.11,0.23-0.15
					c0.09-0.04,0.18-0.06,0.28-0.06h3.98c0.1,0,0.19,0.02,0.28,0.06c0.09,0.04,0.17,0.09,0.23,0.15c0.06,0.07,0.11,0.14,0.15,0.23
					c0.04,0.08,0.06,0.18,0.06,0.27c0,0.1-0.02,0.19-0.06,0.28c-0.04,0.09-0.09,0.16-0.15,0.23c-0.06,0.06-0.14,0.11-0.23,0.15
					c-0.09,0.04-0.18,0.05-0.28,0.05H364.51z"/>
				<path class="st1" d="M372.83,345.57h3.86v-3.14c0-0.2,0.07-0.36,0.21-0.49c0.14-0.13,0.31-0.2,0.51-0.2
					c0.2,0,0.36,0.07,0.49,0.2c0.13,0.13,0.2,0.3,0.2,0.49v7.66c0,0.2-0.07,0.36-0.2,0.5c-0.14,0.13-0.3,0.2-0.5,0.2
					c-0.2,0-0.36-0.07-0.5-0.2c-0.13-0.13-0.2-0.3-0.2-0.5v-3.11h-3.86v3.11c0,0.2-0.07,0.36-0.2,0.5c-0.14,0.13-0.3,0.2-0.5,0.2
					c-0.2,0-0.36-0.07-0.5-0.2c-0.13-0.13-0.2-0.3-0.2-0.5v-7.66c0-0.2,0.07-0.36,0.2-0.49c0.13-0.13,0.3-0.2,0.5-0.2
					c0.2,0,0.36,0.07,0.5,0.2c0.14,0.13,0.2,0.3,0.2,0.49V345.57z"/>
				<path class="st1" d="M385.86,341.84c0.39,0.11,0.76,0.26,1.1,0.46c0.34,0.2,0.65,0.44,0.93,0.72c0.28,0.28,0.52,0.59,0.72,0.93
					c0.2,0.34,0.35,0.71,0.46,1.1c0.11,0.39,0.17,0.8,0.17,1.22c0,0.64-0.12,1.23-0.36,1.79c-0.24,0.56-0.57,1.04-0.99,1.46
					c-0.42,0.42-0.9,0.74-1.46,0.98s-1.16,0.36-1.79,0.36c-0.64,0-1.23-0.12-1.79-0.36c-0.56-0.24-1.04-0.57-1.46-0.98
					c-0.41-0.42-0.74-0.9-0.97-1.46c-0.24-0.56-0.36-1.15-0.36-1.79c0-0.42,0.05-0.83,0.16-1.22c0.11-0.39,0.26-0.76,0.46-1.1
					c0.2-0.34,0.44-0.65,0.71-0.93c0.28-0.28,0.59-0.52,0.93-0.72c0.34-0.2,0.7-0.35,1.1-0.46c0.39-0.11,0.8-0.17,1.22-0.17
					C385.06,341.67,385.47,341.73,385.86,341.84z M383.4,343.34c-0.39,0.17-0.72,0.39-1.01,0.68c-0.29,0.29-0.51,0.63-0.68,1.01
					c-0.16,0.39-0.25,0.8-0.25,1.24c0,0.45,0.08,0.87,0.25,1.25c0.17,0.39,0.39,0.72,0.68,1.01c0.28,0.29,0.62,0.51,1.01,0.68
					c0.39,0.17,0.8,0.25,1.24,0.25c0.44,0,0.86-0.08,1.25-0.25c0.39-0.17,0.73-0.39,1.01-0.68c0.29-0.29,0.51-0.62,0.68-1.01
					c0.16-0.39,0.25-0.8,0.25-1.25c0-0.44-0.08-0.85-0.25-1.24c-0.17-0.39-0.39-0.72-0.68-1.01c-0.29-0.29-0.63-0.51-1.01-0.68
					c-0.39-0.17-0.8-0.25-1.25-0.25C384.2,343.09,383.79,343.17,383.4,343.34z"/>
				<path class="st1" d="M396.27,342.15c0.04-0.08,0.08-0.16,0.15-0.22c0.06-0.06,0.14-0.11,0.22-0.14
					c0.08-0.04,0.18-0.05,0.28-0.05c0.2,0,0.37,0.07,0.5,0.2c0.14,0.13,0.21,0.3,0.21,0.49v5.13c0,0.46-0.08,0.88-0.24,1.28
					c-0.16,0.4-0.39,0.75-0.68,1.05c-0.29,0.3-0.64,0.54-1.04,0.71c-0.4,0.17-0.85,0.26-1.34,0.26c-0.48,0-0.93-0.08-1.35-0.26
					c-0.41-0.17-0.77-0.41-1.07-0.71c-0.3-0.3-0.54-0.65-0.71-1.05c-0.17-0.4-0.26-0.83-0.26-1.28v-5.11c0-0.1,0.02-0.19,0.05-0.28
					c0.04-0.08,0.08-0.16,0.15-0.22c0.06-0.06,0.14-0.11,0.22-0.15c0.08-0.04,0.18-0.06,0.28-0.06c0.1,0,0.19,0.02,0.28,0.06
					c0.08,0.04,0.16,0.09,0.22,0.15c0.06,0.06,0.11,0.14,0.15,0.22c0.04,0.08,0.06,0.18,0.06,0.28v5.07c0,0.26,0.05,0.51,0.15,0.75
					c0.1,0.24,0.24,0.45,0.41,0.62c0.17,0.18,0.38,0.32,0.62,0.42c0.24,0.11,0.51,0.16,0.8,0.16c0.29,0,0.55-0.05,0.78-0.16
					c0.23-0.1,0.43-0.24,0.6-0.42c0.16-0.18,0.29-0.39,0.38-0.62c0.09-0.24,0.13-0.48,0.13-0.75v-5.09
					C396.22,342.33,396.23,342.24,396.27,342.15z"/>
				<path class="st1" d="M401.49,346.56c-0.37-0.14-0.69-0.31-0.96-0.53c-0.27-0.21-0.48-0.46-0.64-0.75
					c-0.16-0.29-0.23-0.63-0.23-1.01c0-0.39,0.08-0.74,0.25-1.06c0.16-0.32,0.39-0.6,0.66-0.83c0.28-0.23,0.59-0.41,0.95-0.53
					c0.36-0.13,0.73-0.19,1.11-0.19c0.28,0,0.55,0.03,0.82,0.08c0.27,0.06,0.52,0.14,0.76,0.25c0.24,0.11,0.45,0.25,0.64,0.41
					c0.19,0.16,0.35,0.36,0.48,0.57c0.04,0.07,0.07,0.13,0.07,0.2c0.01,0.07,0,0.14-0.01,0.2c-0.02,0.07-0.04,0.13-0.07,0.18
					c-0.03,0.06-0.07,0.11-0.11,0.15c-0.05,0.05-0.11,0.09-0.17,0.12c-0.07,0.03-0.14,0.05-0.22,0.06c-0.08,0.01-0.16,0-0.24-0.02
					c-0.08-0.02-0.17-0.06-0.24-0.11c-0.13-0.12-0.26-0.22-0.37-0.31c-0.12-0.09-0.24-0.16-0.37-0.21c-0.13-0.06-0.27-0.1-0.42-0.13
					c-0.15-0.03-0.32-0.04-0.51-0.04c-0.21,0-0.41,0.03-0.6,0.08c-0.19,0.05-0.36,0.13-0.5,0.24c-0.14,0.1-0.26,0.23-0.34,0.37
					c-0.08,0.15-0.13,0.31-0.13,0.49c0,0.21,0.06,0.39,0.17,0.52c0.11,0.14,0.26,0.25,0.45,0.34c0.19,0.09,0.4,0.17,0.65,0.23
					c0.25,0.06,0.51,0.12,0.79,0.18c0.33,0.09,0.65,0.2,0.97,0.32c0.32,0.13,0.6,0.29,0.85,0.49c0.25,0.2,0.45,0.44,0.6,0.72
					c0.15,0.28,0.23,0.62,0.23,1.01c0,0.4-0.08,0.77-0.24,1.11c-0.16,0.34-0.39,0.63-0.67,0.88c-0.28,0.25-0.62,0.44-1,0.58
					c-0.38,0.14-0.79,0.21-1.23,0.21c-0.35,0-0.69-0.05-1.01-0.14c-0.32-0.09-0.62-0.22-0.89-0.38c-0.27-0.16-0.5-0.34-0.71-0.55
					c-0.2-0.21-0.36-0.44-0.47-0.68c-0.06-0.11-0.09-0.22-0.09-0.32c0-0.1,0.01-0.19,0.03-0.28c0.03-0.08,0.07-0.15,0.13-0.22
					c0.06-0.06,0.13-0.11,0.2-0.15c0.17-0.1,0.34-0.11,0.49-0.06c0.15,0.06,0.31,0.19,0.47,0.39c0.2,0.31,0.46,0.55,0.78,0.72
					c0.32,0.17,0.69,0.25,1.12,0.25c0.21,0,0.41-0.03,0.61-0.08c0.2-0.06,0.38-0.14,0.54-0.25c0.16-0.11,0.29-0.25,0.39-0.41
					c0.1-0.16,0.15-0.35,0.15-0.56c0-0.22-0.05-0.39-0.15-0.54c-0.1-0.14-0.23-0.26-0.39-0.35c-0.16-0.09-0.34-0.17-0.54-0.22
					c-0.2-0.06-0.4-0.11-0.6-0.16C402.25,346.81,401.85,346.7,401.49,346.56z"/>
				<path class="st1" d="M408.46,350.78c-0.19-0.02-0.34-0.09-0.47-0.22c-0.12-0.13-0.18-0.29-0.18-0.48v-7.64
					c0-0.1,0.02-0.19,0.05-0.28c0.04-0.08,0.08-0.16,0.15-0.22c0.06-0.06,0.14-0.11,0.23-0.15c0.09-0.04,0.18-0.06,0.28-0.06h3.77
					c0.1,0,0.19,0.02,0.27,0.06c0.08,0.04,0.16,0.09,0.22,0.15c0.06,0.06,0.11,0.14,0.15,0.22c0.04,0.08,0.05,0.18,0.05,0.28
					c0,0.2-0.07,0.36-0.2,0.5c-0.13,0.13-0.3,0.2-0.49,0.2h-3.07v2.45h2.22c0.1-0.01,0.19,0.01,0.28,0.05
					c0.08,0.04,0.16,0.08,0.22,0.15c0.06,0.06,0.11,0.14,0.15,0.22c0.03,0.09,0.05,0.18,0.05,0.28c0,0.2-0.07,0.36-0.2,0.49
					c-0.14,0.13-0.3,0.19-0.5,0.19h-2.22v2.42h3.07c0.2,0,0.36,0.07,0.49,0.2c0.13,0.14,0.2,0.3,0.2,0.5c0,0.1-0.02,0.19-0.05,0.28
					c-0.04,0.08-0.08,0.16-0.15,0.22c-0.06,0.06-0.14,0.11-0.22,0.15c-0.08,0.03-0.17,0.05-0.27,0.05H408.46z"/>
				<path class="st1" d="M423.96,348.26h-3.58l-0.87,2.09c-0.04,0.1-0.09,0.17-0.16,0.24c-0.07,0.06-0.14,0.11-0.23,0.14
					c-0.08,0.03-0.17,0.04-0.27,0.04c-0.1,0-0.19-0.02-0.29-0.06c-0.18-0.08-0.3-0.21-0.36-0.39c-0.06-0.18-0.04-0.36,0.03-0.54
					l3.31-7.62c0.06-0.14,0.15-0.24,0.26-0.32c0.11-0.08,0.24-0.11,0.39-0.11c0.14,0,0.26,0.04,0.38,0.11
					c0.11,0.07,0.2,0.18,0.26,0.31l3.28,7.63c0.08,0.18,0.09,0.36,0.04,0.54c-0.06,0.18-0.17,0.31-0.35,0.39
					c-0.09,0.04-0.18,0.07-0.28,0.07c-0.09,0-0.18-0.01-0.27-0.05c-0.08-0.03-0.16-0.08-0.23-0.14c-0.07-0.06-0.13-0.14-0.17-0.23
					L423.96,348.26z M420.96,346.86h2.4l-1.21-2.88L420.96,346.86z"/>
				<path class="st1" d="M433.78,344.41c0,0.29-0.04,0.57-0.13,0.83c-0.09,0.26-0.21,0.5-0.37,0.72c-0.16,0.22-0.35,0.41-0.57,0.57
					c-0.22,0.16-0.46,0.29-0.72,0.38l1.67,2.82c0.05,0.08,0.08,0.17,0.09,0.27c0.01,0.09,0,0.18-0.03,0.27
					c-0.03,0.09-0.07,0.17-0.13,0.24c-0.06,0.07-0.13,0.13-0.22,0.17c-0.08,0.05-0.17,0.08-0.26,0.08c-0.09,0.01-0.18,0-0.26-0.02
					c-0.08-0.03-0.16-0.07-0.24-0.12c-0.07-0.05-0.13-0.12-0.18-0.21l-1.97-3.36h-1.08v3.02c0,0.2-0.07,0.36-0.2,0.5
					c-0.14,0.13-0.3,0.2-0.5,0.2c-0.2,0-0.36-0.07-0.5-0.2c-0.13-0.13-0.2-0.3-0.2-0.5v-7.66c0-0.2,0.07-0.36,0.2-0.49
					c0.14-0.13,0.3-0.2,0.5-0.2h2.37c0.38,0,0.73,0.07,1.06,0.21c0.33,0.14,0.62,0.33,0.87,0.57c0.25,0.24,0.44,0.52,0.58,0.85
					C433.71,343.69,433.78,344.04,433.78,344.41z M429.4,343.13v2.54h1.67c0.18,0,0.35-0.04,0.51-0.11c0.16-0.07,0.3-0.17,0.42-0.28
					c0.12-0.12,0.21-0.25,0.28-0.41c0.07-0.16,0.1-0.32,0.1-0.49c0-0.17-0.04-0.34-0.11-0.49c-0.07-0.15-0.17-0.29-0.29-0.4
					c-0.12-0.11-0.26-0.2-0.42-0.27c-0.16-0.06-0.33-0.09-0.51-0.09H429.4z"/>
				<path class="st1" d="M439.21,343.13v6.95c0,0.2-0.07,0.36-0.2,0.5c-0.14,0.13-0.3,0.2-0.5,0.2s-0.36-0.07-0.48-0.2
					c-0.12-0.13-0.19-0.3-0.19-0.5v-6.95h-1.88c-0.2,0-0.36-0.07-0.49-0.2c-0.13-0.13-0.2-0.3-0.2-0.5c0-0.2,0.07-0.36,0.2-0.5
					c0.13-0.14,0.3-0.2,0.49-0.2h5.14c0.2,0,0.36,0.07,0.5,0.2c0.13,0.14,0.2,0.3,0.2,0.5c0,0.1-0.02,0.19-0.05,0.28
					c-0.04,0.08-0.09,0.16-0.15,0.22c-0.06,0.06-0.14,0.11-0.22,0.14c-0.08,0.04-0.18,0.05-0.28,0.05H439.21z"/>
				<path class="st1" d="M449.85,341.74c0.42,0,0.83,0.05,1.22,0.16c0.39,0.11,0.76,0.26,1.1,0.45c0.34,0.2,0.65,0.43,0.93,0.71
					c0.28,0.28,0.52,0.58,0.72,0.91c0.2,0.33,0.35,0.7,0.46,1.09c0.11,0.39,0.17,0.79,0.17,1.22c0,0.42-0.05,0.83-0.17,1.22
					c-0.11,0.39-0.26,0.75-0.46,1.08c-0.2,0.33-0.44,0.64-0.72,0.91c-0.28,0.27-0.59,0.5-0.93,0.7c-0.34,0.19-0.7,0.34-1.1,0.45
					c-0.39,0.11-0.8,0.16-1.22,0.16h-1.55c-0.2,0-0.36-0.07-0.5-0.2c-0.13-0.13-0.2-0.3-0.2-0.5v-7.66c0-0.2,0.07-0.36,0.2-0.49
					c0.13-0.13,0.3-0.2,0.5-0.2H449.85z M449.89,343.16H449v6.22h0.86c0.44,0,0.86-0.08,1.25-0.23c0.39-0.16,0.73-0.37,1.01-0.65
					c0.29-0.28,0.51-0.6,0.68-0.98c0.17-0.38,0.25-0.79,0.25-1.24c0-0.44-0.08-0.85-0.25-1.22c-0.17-0.38-0.39-0.7-0.67-0.98
					c-0.28-0.28-0.62-0.5-1-0.66C450.74,343.24,450.33,343.16,449.89,343.16z"/>
				<path class="st1" d="M457.15,350.78c-0.19-0.02-0.34-0.09-0.47-0.22s-0.18-0.29-0.18-0.48v-7.64c0-0.1,0.02-0.19,0.05-0.28
					c0.04-0.08,0.08-0.16,0.15-0.22c0.06-0.06,0.14-0.11,0.23-0.15c0.09-0.04,0.18-0.06,0.28-0.06h3.77c0.1,0,0.19,0.02,0.27,0.06
					s0.16,0.09,0.22,0.15c0.06,0.06,0.11,0.14,0.15,0.22c0.04,0.08,0.05,0.18,0.05,0.28c0,0.2-0.07,0.36-0.2,0.5
					c-0.13,0.13-0.3,0.2-0.49,0.2h-3.07v2.45h2.22c0.1-0.01,0.19,0.01,0.28,0.05c0.08,0.04,0.16,0.08,0.22,0.15
					c0.06,0.06,0.11,0.14,0.15,0.22c0.03,0.09,0.05,0.18,0.05,0.28c0,0.2-0.07,0.36-0.2,0.49c-0.14,0.13-0.3,0.19-0.5,0.19h-2.22
					v2.42h3.07c0.2,0,0.36,0.07,0.49,0.2c0.13,0.14,0.2,0.3,0.2,0.5c0,0.1-0.02,0.19-0.05,0.28c-0.04,0.08-0.08,0.16-0.15,0.22
					c-0.06,0.06-0.14,0.11-0.22,0.15c-0.08,0.03-0.17,0.05-0.27,0.05H457.15z"/>
				<path class="st1" d="M465.1,347.07v3.02c0,0.2-0.07,0.36-0.2,0.5c-0.14,0.13-0.3,0.2-0.5,0.2c-0.2,0-0.36-0.07-0.5-0.2
					c-0.13-0.13-0.2-0.3-0.2-0.5v-7.66c0-0.2,0.07-0.36,0.2-0.49c0.14-0.13,0.3-0.2,0.5-0.2h2.37c0.38,0,0.73,0.07,1.06,0.21
					c0.33,0.14,0.62,0.33,0.87,0.57c0.25,0.24,0.44,0.52,0.58,0.85c0.14,0.33,0.21,0.68,0.21,1.05c0,0.38-0.07,0.73-0.21,1.05
					c-0.14,0.32-0.33,0.6-0.58,0.84c-0.25,0.24-0.54,0.43-0.87,0.56c-0.33,0.14-0.69,0.2-1.06,0.2H465.1z M465.1,343.13v2.54h1.67
					c0.18,0,0.35-0.04,0.51-0.11c0.16-0.07,0.3-0.17,0.42-0.28c0.12-0.12,0.21-0.25,0.28-0.41c0.07-0.16,0.1-0.32,0.1-0.49
					c0-0.17-0.04-0.34-0.11-0.49c-0.07-0.15-0.17-0.29-0.29-0.4c-0.12-0.11-0.26-0.2-0.42-0.27c-0.16-0.06-0.33-0.09-0.51-0.09
					H465.1z"/>
				<path class="st1" d="M476.55,348.26h-3.58l-0.87,2.09c-0.04,0.1-0.09,0.17-0.16,0.24c-0.07,0.06-0.14,0.11-0.23,0.14
					c-0.08,0.03-0.17,0.04-0.27,0.04c-0.1,0-0.19-0.02-0.29-0.06c-0.18-0.08-0.3-0.21-0.36-0.39c-0.06-0.18-0.05-0.36,0.03-0.54
					l3.31-7.62c0.06-0.14,0.15-0.24,0.26-0.32c0.11-0.08,0.24-0.11,0.39-0.11c0.14,0,0.26,0.04,0.38,0.11
					c0.11,0.07,0.2,0.18,0.26,0.31l3.28,7.63c0.08,0.18,0.09,0.36,0.04,0.54c-0.06,0.18-0.17,0.31-0.35,0.39
					c-0.09,0.04-0.18,0.07-0.28,0.07c-0.09,0-0.18-0.01-0.27-0.05c-0.08-0.03-0.16-0.08-0.23-0.14c-0.07-0.06-0.13-0.14-0.17-0.23
					L476.55,348.26z M473.56,346.86h2.4l-1.21-2.88L473.56,346.86z"/>
				<path class="st1" d="M486.38,344.41c0,0.29-0.04,0.57-0.13,0.83c-0.09,0.26-0.21,0.5-0.37,0.72c-0.16,0.22-0.35,0.41-0.57,0.57
					c-0.22,0.16-0.46,0.29-0.72,0.38l1.67,2.82c0.05,0.08,0.08,0.17,0.09,0.27c0.01,0.09,0,0.18-0.03,0.27
					c-0.03,0.09-0.07,0.17-0.13,0.24c-0.06,0.07-0.13,0.13-0.22,0.17c-0.08,0.05-0.17,0.08-0.26,0.08c-0.09,0.01-0.18,0-0.26-0.02
					c-0.08-0.03-0.16-0.07-0.24-0.12c-0.07-0.05-0.13-0.12-0.18-0.21l-1.97-3.36h-1.08v3.02c0,0.2-0.07,0.36-0.2,0.5
					c-0.14,0.13-0.3,0.2-0.5,0.2c-0.2,0-0.36-0.07-0.5-0.2c-0.13-0.13-0.2-0.3-0.2-0.5v-7.66c0-0.2,0.07-0.36,0.2-0.49
					c0.14-0.13,0.3-0.2,0.5-0.2h2.37c0.38,0,0.73,0.07,1.06,0.21c0.33,0.14,0.62,0.33,0.87,0.57c0.25,0.24,0.44,0.52,0.58,0.85
					C486.31,343.69,486.38,344.04,486.38,344.41z M481.99,343.13v2.54h1.67c0.18,0,0.35-0.04,0.51-0.11
					c0.16-0.07,0.3-0.17,0.42-0.28c0.12-0.12,0.21-0.25,0.28-0.41c0.07-0.16,0.1-0.32,0.1-0.49c0-0.17-0.04-0.34-0.11-0.49
					c-0.07-0.15-0.17-0.29-0.29-0.4c-0.12-0.11-0.26-0.2-0.42-0.27c-0.16-0.06-0.33-0.09-0.51-0.09H481.99z"/>
				<path class="st1" d="M491.8,343.13v6.95c0,0.2-0.07,0.36-0.2,0.5c-0.14,0.13-0.3,0.2-0.5,0.2c-0.2,0-0.36-0.07-0.48-0.2
					c-0.12-0.13-0.19-0.3-0.19-0.5v-6.95h-1.88c-0.2,0-0.36-0.07-0.49-0.2c-0.13-0.13-0.2-0.3-0.2-0.5c0-0.2,0.07-0.36,0.2-0.5
					c0.13-0.14,0.3-0.2,0.49-0.2h5.14c0.2,0,0.36,0.07,0.5,0.2c0.13,0.14,0.2,0.3,0.2,0.5c0,0.1-0.02,0.19-0.05,0.28
					c-0.04,0.08-0.09,0.16-0.15,0.22c-0.06,0.06-0.14,0.11-0.22,0.14c-0.08,0.04-0.18,0.05-0.28,0.05H491.8z"/>
				<path class="st1" d="M497.59,345.1l-0.7,5.07c-0.03,0.2-0.12,0.35-0.27,0.46c-0.15,0.11-0.33,0.15-0.52,0.12
					c-0.2-0.03-0.35-0.12-0.47-0.27s-0.16-0.33-0.13-0.52l1.05-7.57c0.02-0.16,0.09-0.29,0.2-0.4c0.08-0.08,0.16-0.15,0.26-0.18
					c0.17-0.07,0.35-0.07,0.53,0c0.18,0.07,0.3,0.2,0.39,0.37l2.48,6.06l2.47-6.06c0.08-0.18,0.2-0.3,0.38-0.37
					c0.17-0.07,0.35-0.07,0.53,0l0.08,0.04c0.11,0.05,0.19,0.12,0.26,0.21c0.07,0.09,0.11,0.2,0.13,0.32l0.98,7.59
					c0.02,0.2-0.02,0.37-0.14,0.52c-0.12,0.15-0.28,0.23-0.47,0.26c-0.19,0.02-0.37-0.02-0.52-0.13c-0.15-0.11-0.24-0.27-0.26-0.47
					l-0.65-5.03l-2.13,5.22c-0.06,0.13-0.14,0.23-0.25,0.3s-0.23,0.11-0.36,0.12c-0.15,0.01-0.28-0.02-0.41-0.09
					c-0.13-0.07-0.22-0.18-0.29-0.34L497.59,345.1z"/>
				<path class="st1" d="M507.67,350.78c-0.19-0.02-0.34-0.09-0.47-0.22c-0.12-0.13-0.18-0.29-0.18-0.48v-7.64
					c0-0.1,0.02-0.19,0.05-0.28c0.04-0.08,0.08-0.16,0.15-0.22c0.06-0.06,0.14-0.11,0.23-0.15c0.09-0.04,0.18-0.06,0.28-0.06h3.77
					c0.1,0,0.19,0.02,0.27,0.06c0.08,0.04,0.16,0.09,0.22,0.15c0.06,0.06,0.11,0.14,0.15,0.22c0.04,0.08,0.05,0.18,0.05,0.28
					c0,0.2-0.07,0.36-0.2,0.5c-0.13,0.13-0.3,0.2-0.49,0.2h-3.07v2.45h2.22c0.1-0.01,0.19,0.01,0.28,0.05
					c0.08,0.04,0.16,0.08,0.22,0.15c0.06,0.06,0.11,0.14,0.15,0.22c0.03,0.09,0.05,0.18,0.05,0.28c0,0.2-0.07,0.36-0.2,0.49
					c-0.14,0.13-0.3,0.19-0.5,0.19h-2.22v2.42h3.07c0.2,0,0.36,0.07,0.49,0.2c0.13,0.14,0.2,0.3,0.2,0.5c0,0.1-0.02,0.19-0.05,0.28
					c-0.04,0.08-0.08,0.16-0.15,0.22c-0.06,0.06-0.14,0.11-0.22,0.15c-0.08,0.03-0.17,0.05-0.27,0.05H507.67z"/>
				<path class="st1" d="M515.62,344.55v5.54c0,0.2-0.07,0.36-0.2,0.5c-0.14,0.13-0.3,0.2-0.5,0.2c-0.2,0-0.36-0.07-0.5-0.2
					c-0.13-0.13-0.2-0.3-0.2-0.5v-7.64c0-0.2,0.07-0.36,0.2-0.5c0.14-0.13,0.3-0.2,0.5-0.2h0.01c0.03,0,0.05,0,0.06,0.01
					c0.02,0,0.04,0,0.05,0.01l0.1,0.02c0.08,0.03,0.15,0.06,0.2,0.11l0.08,0.06c0.05,0.05,0.09,0.11,0.13,0.17l4.2,5.86v-5.57
					c0-0.2,0.07-0.36,0.21-0.49c0.14-0.13,0.31-0.2,0.51-0.2c0.1,0,0.19,0.02,0.28,0.05c0.08,0.04,0.16,0.08,0.22,0.15
					c0.06,0.06,0.11,0.14,0.14,0.22c0.04,0.08,0.05,0.17,0.05,0.27v7.66c0,0.16-0.05,0.3-0.14,0.42c-0.09,0.12-0.21,0.2-0.35,0.24
					c-0.04,0.01-0.08,0.02-0.13,0.03h-0.08c-0.17,0-0.31-0.05-0.44-0.15l-0.07-0.06c-0.02-0.02-0.04-0.04-0.06-0.06L515.62,344.55z"
					/>
				<path class="st1" d="M526.62,343.13v6.95c0,0.2-0.07,0.36-0.2,0.5c-0.14,0.13-0.3,0.2-0.5,0.2c-0.2,0-0.36-0.07-0.48-0.2
					c-0.12-0.13-0.19-0.3-0.19-0.5v-6.95h-1.88c-0.2,0-0.36-0.07-0.49-0.2c-0.13-0.13-0.2-0.3-0.2-0.5c0-0.2,0.07-0.36,0.2-0.5
					c0.13-0.14,0.3-0.2,0.49-0.2h5.14c0.2,0,0.36,0.07,0.5,0.2c0.13,0.14,0.2,0.3,0.2,0.5c0,0.1-0.02,0.19-0.05,0.28
					c-0.04,0.08-0.09,0.16-0.15,0.22c-0.06,0.06-0.14,0.11-0.22,0.14c-0.08,0.04-0.18,0.05-0.28,0.05H526.62z"/>
			</g>
		</g>
	</g>
	<g>
		<path class="st0" d="M313.42,323.57c-4.59-1.14-7.59-6.5-7.59-11.86c0-2.27,0.55-4.59,1.73-6.54c1.41-2.36,3.04-3.09,4.54-3.09
			c2.36,0,4.32,1.91,4.32,1.91c-2.59,1.54-4.23,5.41-4.23,8.95c0,3.59,1.64,6.82,5.54,7.04h0.27c2.86,0,4.77-3.13,8.31-19.72
			l-0.91,0.05c-3.68,0-5.18-2.32-5.18-4.77c0-0.86,0.18-1.68,0.5-2.5c1.09-2.68,3.36-3,3.36-3s-0.14,0.41-0.14,0.95
			c0,1.09,0.5,2.77,3.45,3.45c0.14-0.36,0.23-0.73,0.32-1.09c1.09-3.36,3.86-5.59,6.36-5.59c0.95,0,1.86,0.32,2.64,1
			c0.68,0.59,1.14,1.5,1.14,2.59c0,2.04-1.5,4.63-5.54,6.95c-2.23,11.86-3.86,17.35-5.91,21.08c-2.09,3.72-5.91,4.63-9.04,4.63
			C315.78,324.03,314.33,323.8,313.42,323.57z M335.23,290.41c-0.73,0.91-1.59,2.14-2.09,3.68
			C334.87,293.18,335.18,291.45,335.23,290.41z"/>
		<path class="st0" d="M332.6,319.76c-0.73-1.41-1.09-3.09-1.09-4.82c0-4.13,2.04-8.4,5.41-9.45c0.82-0.27,1.59-0.41,2.23-0.45
			c0.82-0.91,2.04-1.5,3.73-1.5h0.18c4.82,0.18,5.32,5.95,5.32,8.22l-0.04,0.86c0,0,0,2.32-1.68,5.5h0.09
			c1.32,0,3.63-2.54,4.23-4.72h1.95c-0.86,2.59-2.04,5.22-3.86,6.91c-1.18,1.09-2.64,1.5-3.68,1.5c-0.32,0-0.59-0.05-0.82-0.09
			c-1.41,1.45-3.41,2.36-5.41,2.36C336.69,324.07,334.19,322.75,332.6,319.76z M341.68,320.16c-1.77-1.68-2.82-4.13-3.45-5.91
			c-0.36-0.91-0.59-2.04-0.68-3.27c-0.45,1.18-0.77,2.64-0.77,4.04c0.09,2.68,1.59,5.22,3.63,5.27
			C340.86,320.3,341.27,320.25,341.68,320.16z M345.45,311.4c0-3.13-1.36-5.45-3.09-5.45h-0.05c1.05,0.18,1.5,1.14,1.64,1.73v0.23
			c0,1.23-1.32,1.91-1.32,1.91s-0.23-1.18-0.82-1.18h-0.09v0.18c0,2.86,0.95,5.45,2.68,7.59
			C345.14,314.67,345.45,312.94,345.45,311.4z"/>
		<path class="st0" d="M350.45,322.3c-0.54-0.73-0.73-1.41-0.73-2.04c0-1.45,1.14-2.5,1.14-2.5s0.41,1.95,2.32,1.95
			c0.23,0,0.5,0,0.77-0.09c0.45-0.09,0.64-0.32,0.64-0.59c0-1.45-4.27-4.82-4.68-7.9l-0.05-0.86c0-3.45,2.5-6.68,7.09-6.72
			c3.45,0,5.41,2.13,5.41,4.04c0,0.91-0.41,1.73-1.27,2.32c0,0-1.04-2.5-2.91-2.5c-0.59,0-1.32,0.27-2.09,1
			c-0.55,0.55-0.77,1.09-0.77,1.68c0,2.5,4.23,5.54,4.81,8.63c1.73-1.18,3.18-3.54,3.68-5.32h2c0,0-2.77,8.95-8.99,10.4h-0.09
			c-0.59,0.14-1.23,0.23-1.86,0.23C353.04,324.03,351.27,323.39,350.45,322.3z"/>
		<path class="st0" d="M363.9,318.21c-0.23-0.91-0.36-1.86-0.36-2.86c0-5.13,3.18-10.99,7.31-11.63c0.5-0.09,1-0.14,1.45-0.14
			c3.68,0,4.59,2.68,4.59,4.04v0.09c0,1.91-1.18,4-3.09,6.09c-1.86,2-3.82,2.77-4.86,3.09c0.32,1.68,1.14,3.23,2.45,3.23h0.05
			c4.95,0,6.95-6.72,6.95-6.72h2c0,0-1.09,5.63-5.22,8.95c-1.36,1.09-3,1.68-4.63,1.68C367.76,324.03,365.04,322.25,363.9,318.21z
			 M370.53,313.26c2.5-1.23,3.23-3.04,3.59-4.59l0.05-0.36c0-0.64-0.5-1.04-1.09-1.04c-0.23,0-0.5,0.05-0.73,0.18v0.05
			c-0.95,0.54-2.14,2.18-2.86,4.13c-0.27,0.73-0.5,1.5-0.59,2.27C369.49,313.71,370.03,313.49,370.53,313.26z"/>
		<path class="st0" d="M399.07,321.12c-2.82-2.86-3.86-6.77-3.86-10.77c0-4,1.05-8.04,2.41-11.13c2.32-5.32,7.36-11.45,13.86-11.45
			c0.77,0,1.59,0.09,2.41,0.27c4.82,1.14,6.59,3.68,6.59,6.09c0,1.5-0.64,2.86-1.68,3.91v-0.18c0-0.86-0.27-4.95-5.73-4.95
			l-0.91,0.05c-5.82,0.45-10.13,10.49-10.13,17.49c0,2.82,0.68,5.13,2.27,6.18c1.18,0.77,2.36,1.09,3.5,1.09
			c3.59,0,6.68-3.23,6.68-5.95c0-0.5-0.09-1-0.32-1.45c-0.41-0.77-1-1.09-1.64-1.09c-1.41,0-2.91,1.45-2.91,3.13
			c0,0.54,0.14,1.04,0.45,1.59c0,0-0.36,0.09-0.86,0.09c-1,0-2.55-0.41-3.23-2.77c-0.14-0.41-0.18-0.86-0.18-1.32
			c0-2.77,2.32-5.82,5.77-5.82c0.73,0,1.54,0.14,2.36,0.45c3.27,1.27,4.91,4.32,4.91,7.68c0,2.13-0.63,4.36-1.91,6.31
			c-2.09,3.23-6.4,5.45-10.58,5.45C403.7,324.03,401.11,323.16,399.07,321.12z"/>
		<path class="st0" d="M424.83,324.07c-3.18,0-3.91-3.5-3.91-6.86c0-2.32,0.36-4.54,0.5-5.5c0.41-2.36,1.18-7.63,5.04-8.04
			c0.32-0.05,0.64-0.05,0.91-0.05c2.68,0,2.77,1.68,2.77,1.91v0.05c-0.18,0-1.82,0.09-2.77,3.18c-0.5,1.5-0.82,4.13-0.91,6.59
			c1.45-5.59,4.13-11.77,8.86-11.77c2.36,0,3.86,1.54,3.86,3.63l-0.05,0.68c-0.45,3.04-2.27,3.77-3.91,3.77
			c-0.77,0-1.54-0.18-2.04-0.36c0.09-0.55,0.18-1,0.18-1.32v-0.23c0-0.77-0.41-1.23-0.95-1.23c-0.41,0-0.95,0.32-1.36,0.91
			c-2.36,3.32-3.13,9.18-3.36,12.36l-0.09,1.45c-0.77,0.45-1.64,0.77-2.55,0.82H424.83z"/>
		<path class="st0" d="M451.59,324.03c-1.32-0.09-2.18-0.73-2.64-1.91c-0.05,0-0.05,0-0.05,0c-0.04,0.05-0.04,0.05-0.04,0.09
			c-1.23,0.91-2.55,1.36-3.86,1.36c-1.32,0-2.5-0.5-3.59-1.5c-1.09-0.95-1.86-2.5-2.27-4.63c-0.14-0.64-0.18-1.27-0.18-1.95
			c0-2.64,0.73-5.18,2.14-7.68c1.41-2.45,3.13-3.86,5.13-4.18l0.82-0.05c1.27,0,2.23,0.27,2.86,0.82c0.64,0.54,1.04,1.14,1.23,1.82
			c0.36-0.64,0.82-1.23,1.36-1.82c0.5-0.54,1.14-0.82,1.82-0.82c0.5,0,0.95,0.09,1.32,0.27c0.36,0.18,0.68,0.41,0.91,0.64
			c0.23,0.27,0.36,0.54,0.5,0.77c0.14,0.27,0.23,0.5,0.27,0.68v0.18l0.05,0.05v0.04h-0.09c-0.14,0-0.36,0.05-0.68,0.14
			c-0.32,0.14-0.64,0.41-0.95,0.82c-0.36,0.41-0.68,1.09-0.95,1.95c-0.82,3.04-1.23,5.5-1.18,7.41c0,1.95,0.09,2.91,0.27,2.91h0.05
			c0.5-0.05,1-0.41,1.5-1c0.45-0.59,0.86-1.32,1.27-2.09c0.36-0.77,0.68-1.5,0.91-2.09l0.27-0.73l0.05-0.14h2l-0.54,1.59
			c-0.41,1.09-0.95,2.32-1.64,3.73c-0.73,1.41-1.59,2.64-2.59,3.68c-1.04,1.09-2.18,1.64-3.41,1.64H451.59z M448.41,319.21v-0.73
			c0-1.36,0.09-2.68,0.32-3.95c0.23-1.27,0.41-2.23,0.55-2.82c0.05-0.23,0.14-0.68,0.27-1.32c0.09-0.64,0.14-1.23,0.14-1.73
			l-0.05-0.5c-0.14-0.73-0.54-1.09-1.18-1.09c-0.32,0-0.73,0.09-1.13,0.32c-0.64,0.36-1.27,1.09-1.96,2.23
			c-0.68,1.14-1.18,2.45-1.54,3.91c-0.14,0.68-0.23,1.32-0.23,1.95c0,1.04,0.18,2,0.54,2.77c0.32,0.77,0.82,1.27,1.5,1.5
			c0.32,0.09,0.59,0.14,0.86,0.14C447.18,319.89,447.82,319.66,448.41,319.21z"/>
		<path class="st0" d="M460.99,333.02c-2.64-0.5-4.27-4.32-4.32-9.36c0-1.18,0.05-2.36,0.09-3.5c0.27-4.36,0.95-8.18,1.04-8.81
			c0.14-0.64,0.36-2.09,0.91-3.59c0.32-0.86,0.73-1.73,1.32-2.45c0.68-0.86,1.59-1.54,2.77-1.73l0.68-0.05
			c1.59,0,2.36,0.95,2.36,0.95s-1.32,1.54-1.86,3.36c-0.23,0.95-0.55,2.27-0.82,3.82c1.09-3,2.59-5.77,4.68-7.04
			c1.13-0.73,2.13-1,2.95-1c3.41,0,4.45,4.95,4.45,8.95c0,1-0.05,1.95-0.18,2.73c-0.41,2.86-2.95,8.72-8.36,8.72h-0.14
			c-1.91,0-3.18-0.82-4.09-1.91l-0.14,1.14c0.27,2.91,1.18,5.59,3.22,6.77c-0.41,2.32-2.32,3.09-3.77,3.09
			C461.49,333.11,461.22,333.07,460.99,333.02z M469.81,312.99c0-1.95-0.64-3.73-1.95-4.27l-0.41-0.09c-1.95,0-3.32,5-4.23,9.27
			c0.5,0.5,1.09,0.95,1.86,1.23c0.32,0.14,0.68,0.18,0.95,0.18C468.4,319.3,469.81,315.94,469.81,312.99z"/>
		<path class="st0" d="M487.3,317.85c0-0.68,0.05-1.41,0.14-2.18c0.23-2.23,0.73-4.72,0.73-5.72c0-1.05-0.36-1.54-0.91-1.54
			c-0.45,0-1,0.36-1.45,1.05c-1.73,2.41-2.59,6.22-3.04,9.36l-0.36,4.59c-0.82,0.41-1.68,0.64-2.59,0.64h-0.18
			c-1.86-0.14-2.59-2.68-2.59-6.41c0-4.32,0.95-10.22,2.32-15.67c2.14-8.54,5.18-14.27,8.5-14.27c2.14,0,3.04,1.73,3.04,1.73
			s-1.64,1.09-2.45,2.86c-1.95,4.32-3.68,10.99-4.77,16.45c1.23-2.77,2.91-5.13,6.13-5.13h0.27c2.32,0.09,2.95,2.45,2.95,5.36
			c0,3.45-0.95,7.68-1,9.27v0.09c0,0.54,0.23,0.91,0.55,0.91c0.36,0,0.82-0.45,1.32-1.45c0.86-1.86,1.59-4.36,1.59-4.36h2
			c0,0-2.27,10.63-6.13,10.63C488.61,324.03,487.3,321.71,487.3,317.85z"/>
		<path class="st0" d="M498.84,324.03c-3.13,0-3.86-3.45-3.86-6.77c0-2.32,0.36-4.59,0.5-5.54c0.36-2.36,1.18-7.63,5-8.04
			c0.32-0.05,0.63-0.05,0.91-0.05c2.64,0,2.77,1.59,2.77,1.91v0.05h-0.04c-0.23,0-1.77,0.14-2.73,3.13
			c-0.54,1.77-0.91,5.13-0.91,7.86c0,2.27,0.23,4.09,0.86,4.18h0.05c1.36,0,3.95-7.36,3.95-7.36h2c0,0-2.64,10.36-8.27,10.63H498.84
			z M500.06,301.76c0.68-2,1.86-3.86,4.09-4.09l0.86-0.05c2.73,0,2.82,1.68,2.82,1.91v0.05c0,0-1.86,0.36-2.86,2.59L500.06,301.76z"
			/>
		<path class="st0" d="M508.01,322.62c-1.23-0.91-2.18-2.36-2.77-4.41c-0.23-0.91-0.36-1.86-0.36-2.82c0-2.59,0.68-5.04,2.09-7.45
			c1.68-2.91,3.91-4.36,6.63-4.36c1.23,0,2.18,0.23,2.86,0.73c0.68,0.5,1.13,1.05,1.41,1.64c0.23,0.64,0.36,1.18,0.36,1.68
			c-0.05,0.64-0.36,1.27-0.91,1.82c-0.5,0.45-0.77,0.64-0.86,0.64h-0.05l0.05-0.5c0-0.5-0.05-1-0.14-1.5c-0.23-0.68-0.64-1-1.27-1
			c-1.18,0-2.32,0.95-3.36,2.82c-1.04,1.73-1.54,3.54-1.54,5.36c0,1.23,0.23,2.27,0.68,3.18c0.45,0.95,1.09,1.5,1.91,1.68l0.73,0.09
			c0.82,0,1.55-0.23,2.23-0.73c2.18-1.68,3.59-3.63,4.13-5.91l0.05-0.18h2l-0.04,0.09c-0.05,0.18-0.14,0.59-0.36,1.27
			c-0.04,0.05-0.04,0.09-0.04,0.14c-0.95,3.04-2.59,5.54-4.86,7.45c-1.45,1.14-3,1.68-4.63,1.68
			C510.51,324.03,509.24,323.57,508.01,322.62z"/>
		<path class="st0" d="M519.42,322.3c-0.54-0.73-0.73-1.41-0.73-2.04c0-1.45,1.14-2.5,1.14-2.5s0.41,1.95,2.32,1.95
			c0.23,0,0.5,0,0.77-0.09c0.45-0.09,0.63-0.32,0.63-0.59c0-1.45-4.27-4.82-4.68-7.9l-0.04-0.86c0-3.45,2.5-6.68,7.09-6.72
			c3.45,0,5.41,2.13,5.41,4.04c0,0.91-0.41,1.73-1.27,2.32c0,0-1.04-2.5-2.91-2.5c-0.59,0-1.32,0.27-2.09,1
			c-0.54,0.55-0.77,1.09-0.77,1.68c0,2.5,4.23,5.54,4.82,8.63c1.73-1.18,3.18-3.54,3.68-5.32h2c0,0-2.77,8.95-9,10.4h-0.09
			c-0.59,0.14-1.23,0.23-1.86,0.23C522.01,324.03,520.24,323.39,519.42,322.3z"/>
	</g>
	<g>
		<path class="st1" d="M339.14,329.82c-3.79,0-7.31-1.71-9.84-4.73c-2.9,3.07-6.99,4.69-11.93,4.69c-1.8,0-3.75-0.23-5.34-0.63
			c-6.92-1.71-11.94-9.05-11.94-17.44c0-3.46,0.88-6.75,2.56-9.52c3.04-5.1,7.23-5.86,9.46-5.86c0.81,0,1.62,0.1,2.43,0.29
			c-0.03-0.35-0.05-0.71-0.05-1.08c0-1.54,0.29-3.04,0.89-4.58c1.75-4.31,5.36-6.25,7.93-6.61c1.17-0.17,2.34,0.03,3.37,0.55
			c4.19-3.57,10.07-3.78,13.85-0.45c1.96,1.7,3.09,4.22,3.09,6.91c0,1.47-0.36,3.89-2.2,6.51c0.48-0.06,0.96-0.09,1.46-0.09l0.39,0
			c2.35,0.09,4.48,0.88,6.21,2.31c2.16-1.49,4.71-2.28,7.42-2.31c2.96,0,5.65,0.93,7.68,2.63c1.65-1.28,3.46-2.08,5.4-2.38
			c0.7-0.13,1.54-0.2,2.33-0.2c6.71,0,10.34,5.05,10.34,9.79c0,0.16,0,0.32-0.01,0.47c0.85,0.36,1.6,0.92,2.19,1.64
			c1.1,1.33,1.54,3.06,1.21,4.75c-0.15,0.79-1.65,7.83-7.27,12.34c-2.38,1.9-5.3,2.95-8.23,2.95c-2.76,0-5.33-0.91-7.47-2.64
			c-1.55,1.1-3.21,1.86-4.94,2.26c-0.21,0.05-0.41,0.09-0.62,0.11c-3.64,0.73-7.44-0.11-10.01-2.18c-0.3,0.06-0.61,0.11-0.91,0.15
			C344.37,328.99,341.74,329.82,339.14,329.82z M329.41,321.29l0.89,1.32c2.12,3.12,5.34,4.91,8.83,4.91c2.22,0,4.48-0.74,6.35-2.09
			l0.26-0.18l0.32-0.03c0.47-0.04,0.95-0.12,1.44-0.25l0.6-0.16l0.46,0.42c2.06,1.87,5.05,2.71,8.57,2.01
			c0.21-0.03,0.34-0.05,0.46-0.08c1.69-0.4,3.31-1.2,4.8-2.4l0.78-0.63l0.73,0.69c1.84,1.74,4.13,2.66,6.62,2.66
			c2.41,0,4.82-0.87,6.79-2.44c4.98-4,6.31-10.28,6.45-10.98c0.2-1.02-0.07-2.06-0.72-2.85c-0.48-0.59-1.16-1-1.9-1.17l-1.02-0.23
			l0.13-1.04c0.05-0.38,0.07-0.76,0.07-1.14c0-3.63-2.82-7.49-8.04-7.49c-0.65,0-1.35,0.06-1.95,0.17c-1.84,0.28-3.53,1.12-5.05,2.5
			l-0.82,0.74l-0.77-0.8c-1.18-1.21-3.32-2.66-6.81-2.66c-2.52,0.03-4.87,0.85-6.78,2.39l-0.8,0.65l-0.73-0.73
			c-1.46-1.45-3.29-2.23-5.41-2.31l-0.31,0c-1.89,0-3.63,0.53-5.03,1.52l-0.2,0.14l-5.14,1l3.8-2.95c4.37-3.29,5.02-6.7,5.02-8.44
			c0-2.02-0.84-3.9-2.3-5.17c-3.12-2.75-8.01-2.32-11.4,0.97l-0.7,0.68l-0.78-0.57c-0.72-0.52-1.62-0.76-2.51-0.63
			c-1.96,0.27-4.73,1.79-6.11,5.18c-0.49,1.26-0.73,2.48-0.73,3.73c0,0.86,0.11,1.68,0.33,2.46l0.64,2.31l-2.2-0.94
			c-1.14-0.49-2.3-0.74-3.45-0.74c-1.74,0-5.03,0.62-7.49,4.75c-1.46,2.41-2.23,5.29-2.23,8.33c0,7.34,4.29,13.74,10.2,15.2
			c1.42,0.35,3.16,0.56,4.79,0.56c4.77,0,8.6-1.7,11.07-4.92L329.41,321.29z M317.72,316.97l-1.08-0.93
			c-0.67-0.58-0.99-1.59-0.99-3.1c0-2.76,1.32-5.25,2.54-5.98c0.39-0.23,0.73-0.54,1-0.91l3.45-4.65l-1.41,5.61
			c-1.09,4.33-2.04,7.26-2.83,8.7L317.72,316.97z"/>
		<path class="st1" d="M461.81,338.86c-0.81,0-1.46-0.11-1.93-0.2c-3.89-0.74-6.82-3.95-8.15-8.88c-0.03,0-0.06,0-0.09,0l-0.44-0.01
			c-1.18-0.08-2.27-0.36-3.26-0.82c-0.97,0.25-1.95,0.38-2.93,0.38c-2.78,0-5.29-1.01-7.47-3.01c-1.82-1.58-3.1-3.87-3.82-6.79
			c-0.12,0.87-0.22,1.77-0.28,2.69l-0.09,1.4c-0.12,1.91-1.17,3.63-2.83,4.6c-1.67,0.98-3.41,1.52-5.17,1.6l-0.51,0.01
			c-1.16,0-4.86-0.29-7.33-3.74c-3.24,2.36-7.24,3.69-11.16,3.69c-4.41,0-8.33-1.59-11.33-4.59c-3.63-3.69-5.54-8.82-5.54-14.83
			c0-5.98,1.81-10.99,2.89-13.45c2.99-6.86,9.79-14.88,19.12-14.88c1.21,0,2.44,0.14,3.66,0.41c10.29,2.42,11.08,9.57,11.08,11.7
			c0,1.32-0.24,2.63-0.71,3.86c0.12-0.02,0.24-0.03,0.36-0.04c0.38-0.06,0.99-0.08,1.51-0.08c1.41,0,2.7,0.25,3.85,0.74
			c3.22-1.3,7.05-0.96,9.8,0.99c1.67-1.07,3.23-1.49,4.3-1.66c0.2-0.03,0.39-0.05,0.59-0.06l0,0c0,0,1.04-0.06,1.13-0.06
			c1.47,0,2.82,0.23,4.01,0.68c2.29-1,5.05-0.84,7.15,0.2c0.19,0.09,0.37,0.19,0.54,0.3c1.02-0.57,2.09-0.94,3.19-1.11
			c0.16-0.03,0.33-0.04,0.5-0.05c0,0,0.95-0.06,1.06-0.06c1.3,0,2.54,0.26,3.7,0.76c2.39-0.89,4.91-0.9,7.11,0.05
			c3.11-11.2,7.55-16.66,13.55-16.66c4.13,0,6.96,2.58,8.13,4.8c1.38,2.62,0.56,5.83-1.9,7.47c-0.09,0.07-0.36,0.37-0.42,0.49
			c-0.43,0.96-0.88,2.13-1.34,3.5c0.79,0.23,1.66,0.6,2.5,1.19c2.22-5.89,6.41-7.18,8.76-7.42c0.05,0,1.36-0.08,1.45-0.08
			c4.86,0,7.6,2.91,8.33,5.95c2.37-0.07,4.48,0.49,6.14,1.58c1.91-1.04,4.1-1.6,6.37-1.63c7.02,0,11.21,4.98,11.21,9.79
			c0,0.18-0.01,0.36-0.01,0.53c0.93,0.4,1.74,1.04,2.35,1.87c1.08,1.46,1.4,3.38,0.86,5.12c-0.38,1.23-4,12.15-13.18,14.3
			c-0.21,0.05-0.42,0.08-0.63,0.11c-2.91,0.6-6.08,0.15-8.58-1.23c-4.1,2.16-8.89,1.99-12.69-0.61c-1.79,1.29-3.76,2-5.85,2.1
			l-0.51,0.01c-0.8,0-2.3-0.12-3.9-0.87c-3.01,1.53-6.64,0.95-9.15-0.88c-0.26,0.19-0.53,0.36-0.82,0.5
			c-1.65,0.83-3.39,1.24-5.17,1.24c-0.13,0-0.48-0.01-0.61-0.02c-1.45-0.1-3.41-0.63-5.04-2.41c-0.93,0.68-1.9,1.22-2.91,1.61
			c0.13,0.68,0.13,1.38,0.01,2.07C470.42,335.64,466.54,338.86,461.81,338.86z M453.51,327.3l0.22,1.02
			c0.99,4.53,3.38,7.48,6.58,8.09c0.4,0.08,0.89,0.16,1.5,0.16c3.6,0,6.55-2.44,7.17-5.94c0.12-0.66,0.04-1.34-0.22-1.95l-0.52-1.21
			l1.27-0.35c1.45-0.4,2.78-1.13,4.07-2.25l0.98-0.85l0.72,1.08c1.22,1.81,2.89,2.3,4.08,2.38c0.11,0.01,0.35,0.01,0.44,0.01
			c1.41,0,2.81-0.34,4.13-1c0.37-0.18,0.7-0.43,0.99-0.74l0.78-0.84l0.84,0.78c1.6,1.48,3.49,1.8,4.8,1.8
			c1.05,0,2.03-0.28,2.99-0.86l0.57-0.35l0.58,0.33c1.4,0.79,2.81,0.88,3.35,0.88h0.23c2.06-0.1,3.76-0.79,5.37-2.13l0.58-0.48
			l0.91,0.5c3.41,2.63,7.68,2.78,11.39,0.59l0.61-0.36l0.59,0.38c2.11,1.34,4.68,1.84,7.58,1.26c0.22-0.03,0.34-0.05,0.47-0.08
			c7.93-1.85,11.16-11.63,11.5-12.74c0.33-1.04,0.13-2.19-0.52-3.07c-0.49-0.66-1.2-1.13-2-1.32l-1.07-0.25l0.2-1.08
			c0.07-0.37,0.1-0.74,0.1-1.12c0-3.68-3.33-7.49-8.9-7.49c-2.11,0.02-4.14,0.6-5.85,1.68l-0.67,0.42l-0.79-0.62
			c-1.54-1.14-3.5-1.64-6.06-1.38l-1.17,0.12l-0.09-1.17c-0.2-2.47-2.2-4.95-6.22-4.95c-0.13,0-1.27,0.07-1.27,0.07
			c-1.81,0.19-5.2,1.27-6.95,6.4c-0.05,0.15-0.09,0.31-0.12,0.47l-0.08,0.41l-0.32,0.26c-0.16,0.16-0.23,0.23-0.3,0.3l-0.84,0.76
			l-0.77-0.82c-1.19-1.27-2.66-1.7-3.69-1.84l-1.36-0.18l0.41-1.3c0.62-1.98,1.24-3.65,1.84-4.97c0.31-0.67,0.98-1.26,1.2-1.42
			c1.52-1.01,2.01-2.94,1.18-4.51c-0.87-1.65-2.99-3.57-6.1-3.57c-5.04,0-8.87,5.34-11.7,16.34l-0.4,1.55l-1.34-0.88
			c-1.97-1.28-4.46-1.39-6.8-0.39l-0.49,0.21l-0.48-0.24c-0.96-0.49-2.02-0.74-3.13-0.74c-0.13,0-0.91,0.05-0.91,0.05
			c-0.09,0.01-0.19,0.02-0.29,0.03c-1.02,0.16-2,0.54-2.94,1.15l-0.65,0.42l-0.64-0.44c-0.29-0.2-0.58-0.38-0.9-0.54
			c-1.61-0.8-3.82-0.89-5.55,0.02l-0.49,0.26l-0.51-0.23c-1.02-0.45-2.22-0.68-3.57-0.68c-0.12,0-1.01,0.05-1.01,0.05
			c-0.12,0.01-0.23,0.02-0.35,0.04c-0.97,0.15-2.45,0.58-4.02,1.74l-0.74,0.55l-0.7-0.6c-2.27-1.95-5.74-2.28-8.54-0.99l-0.51,0.23
			l-0.5-0.25c-0.95-0.48-2.06-0.73-3.31-0.73c-0.41,0-0.89,0.01-1.22,0.06c-0.9,0.1-1.68,0.31-2.44,0.66l-1.58,0.73l-1.2,1.5
			c-0.11,0.14-0.2,0.28-0.3,0.42l-0.77,1.12l-3.06-2.77l2.41-0.42c0.07-0.01,0.13-0.04,0.2-0.06c0.1-0.04,0.21-0.07,0.31-0.1
			l1.37-0.39l1.2-1.72c1.06-1.52,1.63-3.27,1.63-5.06c0-1.7-0.67-7.42-9.3-9.46c-1.04-0.23-2.11-0.35-3.14-0.35
			c-8.21,0-14.29,7.27-17.01,13.5c-1.01,2.29-2.7,6.96-2.7,12.52c0,5.4,1.69,9.97,4.88,13.21c2.56,2.56,5.91,3.91,9.7,3.91
			c3.82,0,7.73-1.45,10.73-3.97l1.09-0.92l0.67,1.26c1.75,3.31,4.79,3.67,6.01,3.67h0.23c1.56-0.07,2.95-0.51,4.29-1.29
			c0.99-0.58,1.62-1.61,1.7-2.76l0.09-1.41c0.16-2.27,0.49-4.44,0.96-6.27l0.27-1.06l1.07,0.22c0.32,0.06,0.67,0.11,1.05,0.14
			l1.01,0.09l0.04,1.01c0.03,0.77,0.1,1.39,0.21,1.89c0.55,2.87,1.69,5.12,3.32,6.53c2.5,2.29,5.62,2.93,8.66,2.02l0.46-0.14
			l0.42,0.23c0.81,0.44,1.73,0.69,2.75,0.77l0.31,0.01c0.24,0,0.53-0.02,0.83-0.06L453.51,327.3z M416.69,301.76l-2.41-0.69
			c-1.37-0.39-2.82-0.48-4.1-0.29l-2.62,0.39l1.5-2.18c1.12-1.64,2.21-2.51,3.23-2.59l0.81-0.04c0.38,0,0.65,0.03,0.85,0.06l0.8-0.4
			l0.46,1.18c0.08,0.22,0.12,0.47,0.12,0.83c0,0.51,0.11,0.99,0.32,1.45L416.69,301.76z"/>
	</g>
</g>
</svg>
